<svg xmlns="http://www.w3.org/2000/svg" viewBox="0 0 320 220" role="img" aria-label="Catfish">
  <rect width="320" height="220" rx="32" fill="#eef2ff"/>
  <ellipse cx="152" cy="112" rx="88" ry="39" fill="#818cf8"/>
  <path d="M226 112l52-38v76z" fill="#6366f1"/>
  <path d="M94 96c-31-13-54-9-68 6" stroke="#64748b" stroke-width="5" stroke-linecap="round" fill="none"/>
  <path d="M94 126c-31 13-54 9-68-6" stroke="#64748b" stroke-width="5" stroke-linecap="round" fill="none"/>
  <path d="M87 106c-29-2-50 4-65 19" stroke="#64748b" stroke-width="4" stroke-linecap="round" fill="none"/>
  <path d="M87 118c-29 2-50-4-65-19" stroke="#64748b" stroke-width="4" stroke-linecap="round" fill="none"/>
  <circle cx="92" cy="103" r="9" fill="#111827"/>
  <circle cx="95" cy="100" r="3" fill="#fff"/>
  <path d="M115 79c29 20 61 20 95 0-19-12-70-16-95 0z" fill="#a5b4fc"/>
  <text x="160" y="190" text-anchor="middle" font-family="Arial, sans-serif" font-size="22" font-weight="700" fill="#4338ca">Catfish</text>
</svg>
