<svg xmlns="http://www.w3.org/2000/svg" viewBox="0 0 320 220" role="img" aria-label="Common Carp">
  <rect width="320" height="220" rx="32" fill="#fff7ed"/>
  <ellipse cx="154" cy="111" rx="92" ry="43" fill="#f59e0b"/>
  <path d="M230 111l52-42v84z" fill="#d97706"/>
  <path d="M105 83c42-24 82-21 119 6-43 8-84 6-119-6z" fill="#fbbf24"/>
  <path d="M103 139c38 20 77 20 116-3-38-5-77-5-116 3z" fill="#ea580c"/>
  <circle cx="88" cy="101" r="10" fill="#111827"/>
  <circle cx="91" cy="98" r="3" fill="#fff"/>
  <g fill="#fde68a" opacity=".85">
    <circle cx="136" cy="105" r="5"/><circle cx="159" cy="119" r="5"/><circle cx="181" cy="102" r="5"/><circle cx="203" cy="121" r="5"/>
  </g>
  <text x="160" y="190" text-anchor="middle" font-family="Arial, sans-serif" font-size="22" font-weight="700" fill="#b45309">Common Carp</text>
</svg>
